<?xml version="1.0" encoding="UTF-8"?> <svg xmlns="http://www.w3.org/2000/svg" xmlns:xlink="http://www.w3.org/1999/xlink" width="275" height="100" viewBox="0 0 275 100"><defs><clipPath id="clip-path"><path id="Trazado_217" data-name="Trazado 217" d="M320.034,28.673a9.057,9.057,0,0,0,5.6-1.713,17.844,17.844,0,0,1-4.125-2.566,6.258,6.258,0,0,1-1.479,4.278" transform="translate(-320.034 -24.395)" fill="none"></path></clipPath><clipPath id="clip-path-2"><path id="Trazado_219" data-name="Trazado 219" d="M329.015,26.959a9.062,9.062,0,0,0,5.606,1.713,6.281,6.281,0,0,1-1.481-4.278,17.769,17.769,0,0,1-4.125,2.566" transform="translate(-329.015 -24.393)" fill="none"></path></clipPath><clipPath id="clip-Logo_señorial_para_web"><rect width="275" height="100"></rect></clipPath></defs><g id="Logo_señorial_para_web" data-name="Logo señorial para web" clip-path="url(#clip-Logo_señorial_para_web)"><g id="Grupo_1" data-name="Grupo 1" transform="translate(-1098 187)"><g id="Grupo_575" data-name="Grupo 575" transform="translate(1105 -182)"><g id="Grupo_575-2" data-name="Grupo 575" transform="translate(0 2.396)"><path id="Trazado_209" data-name="Trazado 209" d="M283.958,42.151a3.535,3.535,0,0,1-.844.964,1.907,1.907,0,0,1-1.136.32,2.781,2.781,0,0,1-1.326-.392q-.7-.387-1.6-.867a12.809,12.809,0,0,0-2.044-.869,8.2,8.2,0,0,0-2.619-.387A5.622,5.622,0,0,0,270.6,42a3.673,3.673,0,0,0-1.242,2.927,2.7,2.7,0,0,0,.751,1.951,6.389,6.389,0,0,0,1.963,1.335,20.58,20.58,0,0,0,2.781,1.027q1.567.463,3.2,1.045a28.215,28.215,0,0,1,3.2,1.349,10.661,10.661,0,0,1,2.781,1.979A9.171,9.171,0,0,1,286,56.545a10.391,10.391,0,0,1,.746,4.155,13.578,13.578,0,0,1-.927,5.052,11.853,11.853,0,0,1-2.716,4.1,12.514,12.514,0,0,1-4.387,2.756,16.368,16.368,0,0,1-5.914,1,19.329,19.329,0,0,1-3.708-.373,22.064,22.064,0,0,1-3.648-1.057,21.321,21.321,0,0,1-3.316-1.622,14.01,14.01,0,0,1-2.7-2.086l2.67-4.22a2.163,2.163,0,0,1,.83-.779,2.368,2.368,0,0,1,1.159-.292,3.013,3.013,0,0,1,1.622.508q.811.508,1.854,1.124a15.174,15.174,0,0,0,2.366,1.119,8.807,8.807,0,0,0,3.152.512,6,6,0,0,0,3.826-1.085,4.13,4.13,0,0,0,1.36-3.435,3.245,3.245,0,0,0-.749-2.218,5.761,5.761,0,0,0-1.963-1.416,18.309,18.309,0,0,0-2.767-.99q-1.551-.426-3.182-.953a22.869,22.869,0,0,1-3.177-1.279,10.04,10.04,0,0,1-2.767-2,9.436,9.436,0,0,1-1.965-3.1,12.369,12.369,0,0,1-.746-4.584,10.864,10.864,0,0,1,.881-4.278,11.042,11.042,0,0,1,2.593-3.708,12.785,12.785,0,0,1,4.195-2.6,15.458,15.458,0,0,1,5.694-.978,21.7,21.7,0,0,1,3.475.28,18.773,18.773,0,0,1,3.225.832,17.774,17.774,0,0,1,2.846,1.309,13.044,13.044,0,0,1,2.366,1.724Z" transform="translate(-259.427 -16.836)" fill="#26568a"></path><path id="Trazado_210" data-name="Trazado 210" d="M302.133,34.047V41H286.142v9.089h12.241v6.677H286.142v9.27h15.991v6.953H277.064V34.054Z" transform="translate(-245.267 -16.644)" fill="#26568a"></path><path id="Trazado_211" data-name="Trazado 211" d="M299.559,38.02a2.285,2.285,0,0,1,1.337.612,6.921,6.921,0,0,1,.667.721l18.5,23.389c-.072-.751-.127-1.474-.162-2.183s-.053-1.367-.053-1.986V37.964h7.968V76.9h-4.7a4.332,4.332,0,0,1-1.766-.32,3.757,3.757,0,0,1-1.391-1.175l-18.36-23.2q.079,1.015.132,1.993c.037.651.053,1.256.053,1.826V76.9h-7.963V37.964h4.753a7.843,7.843,0,0,1,.99.056M314.34,30.7a1.522,1.522,0,0,0,.948-.3,1.265,1.265,0,0,0,.387-1.068h4.489a8.7,8.7,0,0,1-.385,2.672,6.231,6.231,0,0,1-1.108,2.072,4.842,4.842,0,0,1-1.766,1.337,5.7,5.7,0,0,1-2.35.463,7.688,7.688,0,0,1-1.94-.232c-.63-.162-1.231-.343-1.789-.547s-1.073-.392-1.536-.549a3.883,3.883,0,0,0-1.2-.232,1.3,1.3,0,0,0-.927.334,1.4,1.4,0,0,0-.362,1.085h-4.542a8.3,8.3,0,0,1,.4-2.674,6.189,6.189,0,0,1,1.119-2.07,5.047,5.047,0,0,1,1.764-1.351,5.488,5.488,0,0,1,2.318-.477,8.011,8.011,0,0,1,1.937.232c.633.162,1.231.343,1.792.535s1.075.371,1.539.535a3.807,3.807,0,0,0,1.2.232" transform="translate(-231.817 -20.562)" fill="#26568a"></path><path id="Trazado_212" data-name="Trazado 212" d="M348.986,58.584v14.4h-9.038V34.053h12.67a26.013,26.013,0,0,1,7.2.869,13.609,13.609,0,0,1,4.867,2.42A9.152,9.152,0,0,1,367.425,41a12.828,12.828,0,0,1,.35,8.179,10.69,10.69,0,0,1-1.513,3.112,11.64,11.64,0,0,1-2.457,2.549,13.092,13.092,0,0,1-3.356,1.84,8.7,8.7,0,0,1,1.7,1.122,6.862,6.862,0,0,1,1.377,1.622l8.3,13.56h-8.176a3.476,3.476,0,0,1-3.261-1.708l-6.468-11.305a2.732,2.732,0,0,0-1-1.071,3.382,3.382,0,0,0-1.622-.32Zm0-6.23h3.634a9.362,9.362,0,0,0,3.143-.464,5.636,5.636,0,0,0,2.123-1.3,4.98,4.98,0,0,0,1.205-1.937,7.507,7.507,0,0,0,.371-2.4,5.02,5.02,0,0,0-1.669-4.007,7.789,7.789,0,0,0-5.173-1.442h-3.634Z" transform="translate(-194.779 -16.643)" fill="#26568a"></path><rect id="Rectángulo_202" data-name="Rectángulo 202" width="9.089" height="38.942" transform="translate(181.52 17.4)" fill="#26568a"></rect><path id="Trazado_213" data-name="Trazado 213" d="M406.8,72.986h-7a3.245,3.245,0,0,1-1.938-.545,2.835,2.835,0,0,1-1.054-1.4l-2.29-6.788H379.709l-2.3,6.786a3.092,3.092,0,0,1-2.943,1.949H367.4l15.076-38.935h9.259ZM381.783,58.1H392.43l-3.578-10.661c-.232-.677-.508-1.474-.818-2.4s-.619-1.907-.927-2.973c-.283,1.085-.577,2.086-.881,3.013s-.589,1.729-.858,2.406Z" transform="translate(-172.739 -16.642)" fill="#26568a"></path><path id="Trazado_214" data-name="Trazado 214" d="M400.038,65.77H414.47v7.215H391V34.05h9.039Z" transform="translate(-153.791 -16.641)" fill="#26568a"></path><path id="Trazado_215" data-name="Trazado 215" d="M322.021,38.752a26.158,26.158,0,0,1,25.838.352h.232l5.462-14.452h-.125a10.475,10.475,0,0,1-18.717,0h-.146a10.473,10.473,0,0,1-18.714,0h-.1l5.46,14.441c.257-.125.531-.216.8-.341" transform="translate(-214.206 -24.188)" fill="#8b8865"></path><path id="Trazado_216" data-name="Trazado 216" d="M320.034,28.673a9.057,9.057,0,0,0,5.6-1.713,17.844,17.844,0,0,1-4.125-2.566,6.258,6.258,0,0,1-1.479,4.278" transform="translate(-210.768 -24.395)" fill="#8b8865"></path></g><g id="Grupo_577" data-name="Grupo 577" transform="translate(109.266 2.396)"><g id="Grupo_576" data-name="Grupo 576" transform="translate(0 0)" clip-path="url(#clip-path)"><rect id="Rectángulo_203" data-name="Rectángulo 203" width="5.604" height="4.51" transform="translate(0 0)" fill="#8b8865"></rect></g></g><g id="Grupo_578" data-name="Grupo 578" transform="translate(125.458 2.391)"><path id="Trazado_218" data-name="Trazado 218" d="M329.015,26.959a9.062,9.062,0,0,0,5.606,1.713,6.281,6.281,0,0,1-1.481-4.278,17.769,17.769,0,0,1-4.125,2.566" transform="translate(-329.015 -24.393)" fill="#8b8865"></path></g><g id="Grupo_580" data-name="Grupo 580" transform="translate(125.458 2.391)"><g id="Grupo_579" data-name="Grupo 579" transform="translate(0 0)" clip-path="url(#clip-path-2)"><rect id="Rectángulo_204" data-name="Rectángulo 204" width="5.606" height="4.51" transform="translate(0 0.005)" fill="#8b8865"></rect></g></g><g id="Grupo_581" data-name="Grupo 581" transform="translate(52.601)"><path id="Trazado_220" data-name="Trazado 220" d="M322.423,24.5a1.177,1.177,0,1,1-1.173-1.177,1.177,1.177,0,0,1,1.173,1.177" transform="translate(-263.34 -22.861)" fill="#8b8865"></path><path id="Trazado_221" data-name="Trazado 221" d="M333.078,24.5a1.175,1.175,0,1,1-.343-.832,1.175,1.175,0,0,1,.343.832" transform="translate(-254.781 -22.861)" fill="#8b8865"></path><path id="Trazado_222" data-name="Trazado 222" d="M317.51,25.175a1.175,1.175,0,1,1-.345-.832,1.175,1.175,0,0,1,.345.832" transform="translate(-267.281 -22.316)" fill="#8b8865"></path><path id="Trazado_223" data-name="Trazado 223" d="M338.324,25.172a1.159,1.159,0,1,1-.341-.832,1.175,1.175,0,0,1,.341.832" transform="translate(-250.536 -22.313)" fill="#8b8865"></path><path id="Trazado_224" data-name="Trazado 224" d="M328.945,24.936a1.87,1.87,0,1,1-.549-1.323,1.87,1.87,0,0,1,.549,1.323" transform="translate(-259.216 -23.066)" fill="#8b8865"></path><path id="Trazado_225" data-name="Trazado 225" d="M355.57,53.7a20.9,20.9,0,0,1-1.46,7.859,18.573,18.573,0,0,1-10.475,10.529,23.236,23.236,0,0,1-16.559,0,18.889,18.889,0,0,1-6.4-4.211,18.671,18.671,0,0,1-4.114-6.318,21.874,21.874,0,0,1,0-15.715,18.605,18.605,0,0,1,4.114-6.311,19.1,19.1,0,0,1,6.4-4.2,21.834,21.834,0,0,1,8.288-1.523,21.53,21.53,0,0,1,8.271,1.539,19.025,19.025,0,0,1,6.376,4.209,18.71,18.71,0,0,1,4.1,6.306,20.817,20.817,0,0,1,1.46,7.831m-9.252,0a16.867,16.867,0,0,0-.746-5.2,11.034,11.034,0,0,0-2.148-3.917,9.333,9.333,0,0,0-3.437-2.452,11.834,11.834,0,0,0-4.635-.853,11.994,11.994,0,0,0-4.665.853,9.3,9.3,0,0,0-3.449,2.464,10.979,10.979,0,0,0-2.151,3.917,18.514,18.514,0,0,0,0,10.429,11.025,11.025,0,0,0,2.151,3.917,9.158,9.158,0,0,0,3.449,2.445,12.13,12.13,0,0,0,4.665.841,11.966,11.966,0,0,0,4.635-.841,9.191,9.191,0,0,0,3.439-2.445,11.082,11.082,0,0,0,2.148-3.917,16.951,16.951,0,0,0,.746-5.224" transform="translate(-267.326 -14.441)" fill="#26568a"></path><path id="Trazado_226" data-name="Trazado 226" d="M294.716,77.589a7.022,7.022,0,0,0,1.458-.137,7.139,7.139,0,0,0,1.147-.35,4.562,4.562,0,0,0,.865-.447c.232-.158.445-.3.616-.443s.311-.255.417-.345a.445.445,0,0,1,.25-.141.169.169,0,0,1,.146.067l.392.464a8.878,8.878,0,0,1-1.1.941,7.116,7.116,0,0,1-1.251.711,7.026,7.026,0,0,1-1.446.464,8.109,8.109,0,0,1-1.666.16,6.009,6.009,0,0,1-2.457-.484,5.247,5.247,0,0,1-1.87-1.391,6.237,6.237,0,0,1-1.191-2.155,8.833,8.833,0,0,1-.419-2.8,11.03,11.03,0,0,1,.619-3.771A9.067,9.067,0,0,1,290.95,65a7.648,7.648,0,0,1,5.794-2.575,7.43,7.43,0,0,1,1.458.127,5.33,5.33,0,0,1,1.187.378,4.52,4.52,0,0,1,.994.607,8.2,8.2,0,0,1,.876.834l-.345.447a.387.387,0,0,1-.3.134c-.088,0-.209-.079-.362-.232a3.707,3.707,0,0,0-.665-.54,4.971,4.971,0,0,0-1.131-.547,5.428,5.428,0,0,0-1.766-.232,6.512,6.512,0,0,0-2.742.579,6.438,6.438,0,0,0-2.209,1.648,7.9,7.9,0,0,0-1.474,2.593,10.154,10.154,0,0,0-.54,3.423,8,8,0,0,0,.364,2.489,5.674,5.674,0,0,0,1.027,1.886,4.456,4.456,0,0,0,1.578,1.187,4.866,4.866,0,0,0,2.012.41" transform="translate(-288.604 8.535)" fill="#26568a"></path><path id="Trazado_227" data-name="Trazado 227" d="M303.862,76.257h-.514a.38.38,0,0,1-.294-.1.394.394,0,0,1-.086-.248l.371-3.476a11.852,11.852,0,0,1-.927,1.622,7.341,7.341,0,0,1-1.082,1.254,4.647,4.647,0,0,1-1.205.816,3.138,3.138,0,0,1-1.314.287,2.672,2.672,0,0,1-1.228-.271,2.55,2.55,0,0,1-.878-.776,3.691,3.691,0,0,1-.524-1.214,6.527,6.527,0,0,1-.181-1.6,7.477,7.477,0,0,1,.246-1.9,7.789,7.789,0,0,1,.7-1.768,8.267,8.267,0,0,1,1.071-1.539,7.331,7.331,0,0,1,1.377-1.212,6.343,6.343,0,0,1,1.622-.8,5.49,5.49,0,0,1,1.768-.287,6.654,6.654,0,0,1,1.249.111,4.485,4.485,0,0,1,1.147.408Zm-4.714-.735a2.512,2.512,0,0,0,1.254-.355,4.637,4.637,0,0,0,1.175-1.008,9.157,9.157,0,0,0,1.054-1.571,14.291,14.291,0,0,0,.888-2.035l.556-4.51a4.487,4.487,0,0,0-2.878.023,5.476,5.476,0,0,0-1.319.7,6.355,6.355,0,0,0-1.138,1.059,7.09,7.09,0,0,0-.895,1.344,6.994,6.994,0,0,0-.586,1.541,6.562,6.562,0,0,0-.206,1.659,4.451,4.451,0,0,0,.508,2.318,1.729,1.729,0,0,0,1.587.832" transform="translate(-282.664 10.634)" fill="#26568a"></path><path id="Trazado_228" data-name="Trazado 228" d="M302.406,78.488l1.961-16.223H305.4l-1.975,16.223Z" transform="translate(-277.522 8.404)" fill="#26568a"></path><path id="Trazado_229" data-name="Trazado 229" d="M308.848,76.424a4.018,4.018,0,0,1-1.622-.313,3.413,3.413,0,0,1-1.247-.9,4.264,4.264,0,0,1-.8-1.432,6,6,0,0,1-.283-1.91,8.408,8.408,0,0,1,.4-2.591,7.2,7.2,0,0,1,1.129-2.188,5.74,5.74,0,0,1,1.733-1.511,4.435,4.435,0,0,1,2.206-.563,4.058,4.058,0,0,1,1.622.315,3.525,3.525,0,0,1,1.249.906,4.072,4.072,0,0,1,.8,1.428,5.974,5.974,0,0,1,.28,1.9,8.287,8.287,0,0,1-.4,2.586,7.473,7.473,0,0,1-1.133,2.19,5.562,5.562,0,0,1-1.727,1.516,4.387,4.387,0,0,1-2.2.572m.086-.834a3.184,3.184,0,0,0,1.766-.51,4.607,4.607,0,0,0,1.363-1.344,6.494,6.494,0,0,0,.874-1.931,8.05,8.05,0,0,0,.313-2.229,4.246,4.246,0,0,0-.795-2.756,2.677,2.677,0,0,0-2.195-.971,3.245,3.245,0,0,0-1.214.232,3.642,3.642,0,0,0-1.05.644,4.869,4.869,0,0,0-.865.971,6.107,6.107,0,0,0-.647,1.233,7.956,7.956,0,0,0-.4,1.411,8.772,8.772,0,0,0-.134,1.527,4.288,4.288,0,0,0,.783,2.749,2.668,2.668,0,0,0,2.2.976" transform="translate(-275.521 10.614)" fill="#26568a"></path><path id="Trazado_230" data-name="Trazado 230" d="M311.137,76.258l1.34-11.124h.48a.35.35,0,0,1,.392.4l-.324,3.3a8.7,8.7,0,0,1,1.733-2.8,2.9,2.9,0,0,1,2.086-.99,2.479,2.479,0,0,1,.927.192l-.19.99a2.549,2.549,0,0,0-3.106.987,10.24,10.24,0,0,0-1.622,3.391l-.667,5.653Z" transform="translate(-270.509 10.633)" fill="#26568a"></path><path id="Trazado_231" data-name="Trazado 231" d="M324.855,80.185h-.6a.371.371,0,0,1-.317-.123.5.5,0,0,1-.1-.327.671.671,0,0,1,0-.144l.881-6.985a11.53,11.53,0,0,1-.927,1.557,7.376,7.376,0,0,1-1.057,1.2,4.708,4.708,0,0,1-1.187.776,3.191,3.191,0,0,1-1.284.271,2.66,2.66,0,0,1-1.226-.271,2.492,2.492,0,0,1-.876-.776,3.658,3.658,0,0,1-.528-1.214,6.619,6.619,0,0,1-.181-1.6,7.471,7.471,0,0,1,.248-1.9,8.031,8.031,0,0,1,.7-1.768,8.206,8.206,0,0,1,1.078-1.539,7.1,7.1,0,0,1,1.377-1.212,6.394,6.394,0,0,1,1.608-.8,5.519,5.519,0,0,1,1.775-.287,6.672,6.672,0,0,1,1.247.111,4.449,4.449,0,0,1,1.145.408Zm-4.223-4.658a2.431,2.431,0,0,0,1.242-.352,4.506,4.506,0,0,0,1.159-1,8.778,8.778,0,0,0,1.05-1.546,13.754,13.754,0,0,0,.878-2.007l.014-.03.577-4.547a4.48,4.48,0,0,0-2.876.023,5.533,5.533,0,0,0-1.321.7,6.39,6.39,0,0,0-1.133,1.059,7.171,7.171,0,0,0-1.481,2.885,6.575,6.575,0,0,0-.211,1.659,4.43,4.43,0,0,0,.51,2.318,1.724,1.724,0,0,0,1.587.832" transform="translate(-265.441 10.63)" fill="#26568a"></path><path id="Trazado_232" data-name="Trazado 232" d="M325.814,65.114l-.832,7.052a7.645,7.645,0,0,0-.07.971,2.963,2.963,0,0,0,.429,1.734,1.555,1.555,0,0,0,1.351.6,2.714,2.714,0,0,0,1.238-.313,4.866,4.866,0,0,0,1.214-.895,8.365,8.365,0,0,0,1.115-1.4A10.516,10.516,0,0,0,331.186,71l.711-5.891h1.05l-1.339,11.1h-.491a.387.387,0,0,1-.3-.109.445.445,0,0,1-.1-.3l.334-3.152a9.975,9.975,0,0,1-1.01,1.571,7.18,7.18,0,0,1-1.159,1.159,5.08,5.08,0,0,1-1.254.725,3.6,3.6,0,0,1-1.293.25,2.172,2.172,0,0,1-1.854-.82,3.817,3.817,0,0,1-.619-2.331c0-.07,0-.141,0-.218a2.209,2.209,0,0,1,.032-.4c.033-.19.046-.45.083-.786s.093-.788.158-1.365.148-1.293.248-2.155.232-1.912.375-3.152Z" transform="translate(-260.3 10.692)" fill="#26568a"></path><path id="Trazado_233" data-name="Trazado 233" d="M338.456,67.305a3.03,3.03,0,0,1-.125.871,2.169,2.169,0,0,1-.433.779,3.3,3.3,0,0,1-.846.7,6.236,6.236,0,0,1-1.37.6,15.989,15.989,0,0,1-1.993.491q-1.159.216-2.721.385c-.014.155-.028.311-.033.464s0,.3,0,.45a4.07,4.07,0,0,0,.751,2.6,2.74,2.74,0,0,0,2.269.927,3.96,3.96,0,0,0,1.064-.13,3.842,3.842,0,0,0,.841-.329,4.522,4.522,0,0,0,.661-.422c.19-.148.359-.292.51-.426s.274-.243.38-.329a.51.51,0,0,1,.3-.127.3.3,0,0,1,.232.111l.243.287a10.266,10.266,0,0,1-1.061,1,5.759,5.759,0,0,1-1.052.7,4.468,4.468,0,0,1-1.094.394,5.447,5.447,0,0,1-1.215.13,4.146,4.146,0,0,1-1.645-.306,3.335,3.335,0,0,1-1.21-.871,3.759,3.759,0,0,1-.742-1.367,5.847,5.847,0,0,1-.26-1.812,8.94,8.94,0,0,1,.167-1.68,8.225,8.225,0,0,1,.5-1.622,7.544,7.544,0,0,1,.809-1.469,5.9,5.9,0,0,1,1.112-1.184,5.17,5.17,0,0,1,1.391-.793,4.49,4.49,0,0,1,1.636-.29,3.687,3.687,0,0,1,1.377.232,2.806,2.806,0,0,1,.913.568,2.16,2.16,0,0,1,.51.739,2.047,2.047,0,0,1,.153.739m-3.013-1.492a3.379,3.379,0,0,0-1.622.378,4.542,4.542,0,0,0-1.27,1.006,5.934,5.934,0,0,0-.927,1.465,7.916,7.916,0,0,0-.549,1.734c.943-.1,1.757-.232,2.438-.364a16.51,16.51,0,0,0,1.741-.433,5.329,5.329,0,0,0,1.159-.5,2.781,2.781,0,0,0,.7-.554,1.479,1.479,0,0,0,.329-.586,2.357,2.357,0,0,0,.081-.621,1.41,1.41,0,0,0-.1-.508,1.35,1.35,0,0,0-.352-.5,2.026,2.026,0,0,0-.639-.368,2.7,2.7,0,0,0-.973-.151" transform="translate(-255.44 10.617)" fill="#26568a"></path><path id="Trazado_234" data-name="Trazado 234" d="M337.7,80.2l1.826-15.043h.48a.352.352,0,0,1,.392.4l-.359,3.476a10.288,10.288,0,0,1,.978-1.641,7.45,7.45,0,0,1,1.159-1.27,4.925,4.925,0,0,1,1.263-.816,3.245,3.245,0,0,1,1.337-.292,2.737,2.737,0,0,1,1.27.278,2.528,2.528,0,0,1,.913.783,3.594,3.594,0,0,1,.559,1.233,6.565,6.565,0,0,1,.19,1.622,9.125,9.125,0,0,1-.174,1.745,10.414,10.414,0,0,1-.51,1.715,9.01,9.01,0,0,1-.8,1.564,6.456,6.456,0,0,1-1.075,1.279,4.883,4.883,0,0,1-1.321.867,3.759,3.759,0,0,1-1.523.315,3.509,3.509,0,0,1-1.664-.4,3.155,3.155,0,0,1-1.242-1.18l-.656,5.361Zm6.721-14.322a2.616,2.616,0,0,0-1.272.357,4.677,4.677,0,0,0-1.233.994,8.786,8.786,0,0,0-1.112,1.553,12.444,12.444,0,0,0-.927,2.021L339.484,74a2.9,2.9,0,0,0,1.205,1.233,3.245,3.245,0,0,0,1.483.359,3.05,3.05,0,0,0,1.307-.285,3.973,3.973,0,0,0,1.1-.776,5.331,5.331,0,0,0,.878-1.14,8.184,8.184,0,0,0,.649-1.377,9.268,9.268,0,0,0,.4-1.49,8.017,8.017,0,0,0,.141-1.486,4.1,4.1,0,0,0-.568-2.318,1.893,1.893,0,0,0-1.662-.832" transform="translate(-249.18 10.613)" fill="#26568a"></path><path id="Trazado_235" data-name="Trazado 235" d="M352.614,67.3a2.977,2.977,0,0,1-.125.871,2.142,2.142,0,0,1-.433.779,3.367,3.367,0,0,1-.846.7,6.3,6.3,0,0,1-1.372.6,15.7,15.7,0,0,1-1.993.491q-1.159.216-2.716.385-.025.232-.032.464c0,.148-.016.3-.016.45a4.037,4.037,0,0,0,.756,2.6,2.742,2.742,0,0,0,2.267.927,4.018,4.018,0,0,0,1.912-.464,4.928,4.928,0,0,0,.658-.422c.188-.148.355-.292.5-.426s.28-.243.387-.329a.5.5,0,0,1,.294-.127.306.306,0,0,1,.232.111l.244.287a10.28,10.28,0,0,1-1.064,1,5.9,5.9,0,0,1-1.043.7,4.6,4.6,0,0,1-1.1.394,5.408,5.408,0,0,1-1.21.13,4.121,4.121,0,0,1-1.643-.306,3.261,3.261,0,0,1-1.21-.871,3.769,3.769,0,0,1-.746-1.367,5.846,5.846,0,0,1-.26-1.812,8.771,8.771,0,0,1,.169-1.68,8.472,8.472,0,0,1,.491-1.622,7.869,7.869,0,0,1,.814-1.458,6.059,6.059,0,0,1,1.11-1.184,5.261,5.261,0,0,1,1.391-.793,4.508,4.508,0,0,1,1.638-.29,3.69,3.69,0,0,1,1.377.232,2.806,2.806,0,0,1,.913.568,2.086,2.086,0,0,1,.508.739,1.982,1.982,0,0,1,.157.739m-3.013-1.493a3.379,3.379,0,0,0-1.622.378,4.5,4.5,0,0,0-1.27,1.006,5.89,5.89,0,0,0-.927,1.465,8.012,8.012,0,0,0-.547,1.734c.943-.1,1.757-.232,2.438-.364a16.311,16.311,0,0,0,1.736-.433,5.387,5.387,0,0,0,1.159-.5,2.791,2.791,0,0,0,.7-.554,1.516,1.516,0,0,0,.329-.586,2.276,2.276,0,0,0,.086-.621,1.414,1.414,0,0,0-.107-.508,1.391,1.391,0,0,0-.352-.5,2.022,2.022,0,0,0-.64-.368,2.7,2.7,0,0,0-.976-.151" transform="translate(-244.082 10.621)" fill="#26568a"></path><path id="Trazado_236" data-name="Trazado 236" d="M349.733,76.258l1.337-11.124h.48a.35.35,0,0,1,.392.4l-.322,3.3a8.666,8.666,0,0,1,1.731-2.8,2.9,2.9,0,0,1,2.086-.99,2.463,2.463,0,0,1,.927.192l-.19.99a2.549,2.549,0,0,0-3.1.987,10.138,10.138,0,0,0-1.636,3.391l-.667,5.653Z" transform="translate(-239.521 10.633)" fill="#26568a"></path><path id="Trazado_237" data-name="Trazado 237" d="M361.114,78.48a.389.389,0,0,1-.3-.1.4.4,0,0,1-.081-.248l.368-3.532a10.432,10.432,0,0,1-.976,1.641,7.755,7.755,0,0,1-1.14,1.272,4.914,4.914,0,0,1-1.261.82,3.34,3.34,0,0,1-1.335.287,2.737,2.737,0,0,1-1.268-.278,2.549,2.549,0,0,1-.927-.793,3.707,3.707,0,0,1-.556-1.235,6.354,6.354,0,0,1-.192-1.622,8.8,8.8,0,0,1,.181-1.734,10.219,10.219,0,0,1,.505-1.717,8.811,8.811,0,0,1,.8-1.555,6.363,6.363,0,0,1,1.075-1.275,4.8,4.8,0,0,1,1.319-.862,3.747,3.747,0,0,1,3.187.072,3.266,3.266,0,0,1,1.247,1.187l.813-6.538h1.024l-1.984,16.223Zm-4.38-.711a2.626,2.626,0,0,0,1.272-.352,4.955,4.955,0,0,0,1.231-1,8.451,8.451,0,0,0,1.115-1.555,12.945,12.945,0,0,0,.927-2.009l.394-3.21a2.829,2.829,0,0,0-1.194-1.224A3.245,3.245,0,0,0,359,68.058a3.012,3.012,0,0,0-1.307.287,3.9,3.9,0,0,0-1.108.774,5.773,5.773,0,0,0-.878,1.14,7.674,7.674,0,0,0-.644,1.367,8.637,8.637,0,0,0-.4,1.492,8.106,8.106,0,0,0-.141,1.481,4.093,4.093,0,0,0,.57,2.318,1.87,1.87,0,0,0,1.657.839" transform="translate(-236.538 8.411)" fill="#26568a"></path><path id="Trazado_238" data-name="Trazado 238" d="M362.024,65.113l-.83,7.052a7.634,7.634,0,0,0-.07.971,2.948,2.948,0,0,0,.426,1.734,1.553,1.553,0,0,0,1.356.6,2.711,2.711,0,0,0,1.235-.313,4.869,4.869,0,0,0,1.217-.895,8.25,8.25,0,0,0,1.108-1.39,10.522,10.522,0,0,0,.927-1.854l.714-5.891h1.047l-1.34,11.087h-.491a.394.394,0,0,1-.306-.109.463.463,0,0,1-.1-.3l.336-3.152a10.211,10.211,0,0,1-1.006,1.571,7.2,7.2,0,0,1-1.159,1.159,5.079,5.079,0,0,1-1.254.725,3.592,3.592,0,0,1-1.291.25,2.172,2.172,0,0,1-1.854-.82,3.805,3.805,0,0,1-.619-2.331c0-.07,0-.141,0-.218s.019-.211.035-.4.046-.45.083-.786.09-.788.158-1.365.148-1.293.253-2.155.232-1.912.368-3.152Z" transform="translate(-231.225 10.694)" fill="#26568a"></path><path id="Trazado_239" data-name="Trazado 239" d="M366.266,76.258,367.6,65.134h.477a.348.348,0,0,1,.389.4l-.322,3.3a8.7,8.7,0,0,1,1.736-2.8,2.887,2.887,0,0,1,2.074-.99,2.465,2.465,0,0,1,.927.192l-.19.99a2.781,2.781,0,0,0-.959-.185,2.744,2.744,0,0,0-2.144,1.173,10.2,10.2,0,0,0-1.622,3.391l-.67,5.653Z" transform="translate(-226.248 10.633)" fill="#26568a"></path><path id="Trazado_240" data-name="Trazado 240" d="M377.828,76.257h-.512a.378.378,0,0,1-.294-.1.383.383,0,0,1-.083-.248l.364-3.476a11.482,11.482,0,0,1-.927,1.622,7.41,7.41,0,0,1-1.08,1.254,4.766,4.766,0,0,1-1.212.816,3.124,3.124,0,0,1-1.312.287,2.675,2.675,0,0,1-1.231-.271,2.518,2.518,0,0,1-.874-.776,3.707,3.707,0,0,1-.526-1.214,6.519,6.519,0,0,1-.181-1.6,7.4,7.4,0,0,1,.248-1.9,8.028,8.028,0,0,1,1.773-3.308,7.24,7.24,0,0,1,1.372-1.212,6.446,6.446,0,0,1,1.622-.8,5.512,5.512,0,0,1,1.773-.287,6.685,6.685,0,0,1,1.251.111,4.569,4.569,0,0,1,1.159.408Zm-4.712-.735a2.515,2.515,0,0,0,1.254-.355,4.7,4.7,0,0,0,1.177-1.008,9.5,9.5,0,0,0,1.054-1.571,14.687,14.687,0,0,0,.883-2.035l.556-4.51a4.329,4.329,0,0,0-1.425-.232,4.267,4.267,0,0,0-1.449.248,5.448,5.448,0,0,0-1.323.7,6.41,6.41,0,0,0-1.138,1.059,7.357,7.357,0,0,0-.9,1.344,7.264,7.264,0,0,0-.582,1.541,6.655,6.655,0,0,0-.206,1.659,4.43,4.43,0,0,0,.508,2.318,1.729,1.729,0,0,0,1.588.832" transform="translate(-223.282 10.634)" fill="#26568a"></path></g></g></g></g></svg> 